<svg id="svg" fill="#000000" stroke="#000000" width="261" height="261" version="1.1" viewBox="144 144 512 512" xmlns="http://www.w3.org/2000/svg" stroke-width="49">
    <g id="IconSvg_bgCarrier" stroke-width="0"></g>
    <g id="IconSvg_tracerCarrier" stroke-linecap="round" stroke-linejoin="round" stroke="#CCCCCC" stroke-width="0">
      <path xmlns="http://www.w3.org/2000/svg" d="m236.82 438.34h124.79v124.79c0 21.211 17.18 38.34 38.34 38.34 21.211 0 38.34-17.18 38.34-38.34v-124.79h124.79c21.211 0 38.34-17.18 38.34-38.34s-17.18-38.34-38.34-38.34h-124.74v-124.84c0-21.211-17.18-38.34-38.34-38.34-21.211 0-38.34 17.18-38.34 38.34v124.79h-124.84c-21.16 0.050781-38.34 17.18-38.34 38.391 0 21.207 17.18 38.34 38.34 38.34z"></path>

      </g>
     <g id="IconSvg_iconCarrier">
      <path xmlns="http://www.w3.org/2000/svg" d="m236.82 438.34h124.79v124.79c0 21.211 17.18 38.34 38.34 38.34 21.211 0 38.34-17.18 38.34-38.34v-124.79h124.79c21.211 0 38.34-17.18 38.34-38.34s-17.18-38.34-38.34-38.34h-124.74v-124.84c0-21.211-17.18-38.34-38.34-38.34-21.211 0-38.34 17.18-38.34 38.34v124.79h-124.84c-21.16 0.050781-38.34 17.18-38.34 38.391 0 21.207 17.18 38.34 38.34 38.34z"></path>

      </g>
      </svg>